<mxfile host="app.diagrams.net" modified="2023-07-05T21:54:24.023Z" agent="Mozilla/5.0 (Windows NT 10.0; Win64; x64) AppleWebKit/537.36 (KHTML, like Gecko) Chrome/114.0.0.0 Safari/537.36" etag="rrjfB1cho_BoL124DfE8" version="21.6.1" type="github">
  <diagram name="Страница 1" id="T4Ymd4aeEVdObeijaIQG">
    <mxGraphModel dx="1961" dy="671" grid="1" gridSize="10" guides="1" tooltips="1" connect="1" arrows="1" fold="1" page="1" pageScale="1" pageWidth="827" pageHeight="1169" math="0" shadow="0">
      <root>
        <mxCell id="0" />
        <mxCell id="1" parent="0" />
        <mxCell id="0Lf7RoLiXzNrAuDKem5A-1" value="&lt;div style=&quot;text-align: left;&quot;&gt;&lt;span style=&quot;background-color: initial;&quot;&gt;e- mail&lt;/span&gt;&lt;/div&gt;&lt;div style=&quot;text-align: left;&quot;&gt;&lt;span style=&quot;background-color: initial;&quot;&gt;login&lt;/span&gt;&lt;/div&gt;&lt;div style=&quot;text-align: left;&quot;&gt;&lt;span style=&quot;background-color: initial;&quot;&gt;password&lt;/span&gt;&lt;/div&gt;" style="rounded=0;whiteSpace=wrap;html=1;" vertex="1" parent="1">
          <mxGeometry x="670" y="44" width="120" height="86" as="geometry" />
        </mxCell>
        <mxCell id="0Lf7RoLiXzNrAuDKem5A-4" value="" style="endArrow=none;html=1;rounded=0;entryX=1;entryY=0.25;entryDx=0;entryDy=0;exitX=0;exitY=0.25;exitDx=0;exitDy=0;" edge="1" parent="1" source="0Lf7RoLiXzNrAuDKem5A-1" target="0Lf7RoLiXzNrAuDKem5A-1">
          <mxGeometry width="50" height="50" relative="1" as="geometry">
            <mxPoint x="715" y="102" as="sourcePoint" />
            <mxPoint x="765" y="52" as="targetPoint" />
          </mxGeometry>
        </mxCell>
        <mxCell id="0Lf7RoLiXzNrAuDKem5A-5" value="" style="endArrow=none;html=1;rounded=0;" edge="1" parent="1">
          <mxGeometry width="50" height="50" relative="1" as="geometry">
            <mxPoint x="695" y="130" as="sourcePoint" />
            <mxPoint x="695" y="50" as="targetPoint" />
            <Array as="points">
              <mxPoint x="695" y="82" />
            </Array>
          </mxGeometry>
        </mxCell>
        <mxCell id="0Lf7RoLiXzNrAuDKem5A-6" value="Entrance" style="text;html=1;align=center;verticalAlign=middle;resizable=0;points=[];autosize=1;strokeColor=none;fillColor=none;" vertex="1" parent="1">
          <mxGeometry x="670" y="20" width="70" height="30" as="geometry" />
        </mxCell>
        <mxCell id="0Lf7RoLiXzNrAuDKem5A-7" value="PK" style="text;html=1;strokeColor=none;fillColor=none;align=center;verticalAlign=middle;whiteSpace=wrap;rounded=0;" vertex="1" parent="1">
          <mxGeometry x="653" y="44" width="60" height="30" as="geometry" />
        </mxCell>
        <mxCell id="0Lf7RoLiXzNrAuDKem5A-22" value="" style="rounded=0;whiteSpace=wrap;html=1;" vertex="1" parent="1">
          <mxGeometry x="657" y="210" width="150" height="140" as="geometry" />
        </mxCell>
        <mxCell id="0Lf7RoLiXzNrAuDKem5A-23" value="Employee" style="text;html=1;strokeColor=none;fillColor=none;align=center;verticalAlign=middle;whiteSpace=wrap;rounded=0;" vertex="1" parent="1">
          <mxGeometry x="663" y="180" width="60" height="30" as="geometry" />
        </mxCell>
        <mxCell id="0Lf7RoLiXzNrAuDKem5A-24" value="" style="endArrow=none;html=1;rounded=0;exitX=0.25;exitY=1;exitDx=0;exitDy=0;entryX=0.25;entryY=0;entryDx=0;entryDy=0;" edge="1" parent="1" source="0Lf7RoLiXzNrAuDKem5A-22" target="0Lf7RoLiXzNrAuDKem5A-22">
          <mxGeometry width="50" height="50" relative="1" as="geometry">
            <mxPoint x="698" y="230" as="sourcePoint" />
            <mxPoint x="748" y="180" as="targetPoint" />
          </mxGeometry>
        </mxCell>
        <mxCell id="0Lf7RoLiXzNrAuDKem5A-28" value="" style="endArrow=none;html=1;rounded=0;exitX=0;exitY=0.25;exitDx=0;exitDy=0;entryX=1;entryY=0.25;entryDx=0;entryDy=0;" edge="1" parent="1" source="0Lf7RoLiXzNrAuDKem5A-22" target="0Lf7RoLiXzNrAuDKem5A-22">
          <mxGeometry width="50" height="50" relative="1" as="geometry">
            <mxPoint x="698" y="230" as="sourcePoint" />
            <mxPoint x="748" y="180" as="targetPoint" />
          </mxGeometry>
        </mxCell>
        <mxCell id="0Lf7RoLiXzNrAuDKem5A-29" value="PK" style="text;html=1;strokeColor=none;fillColor=none;align=center;verticalAlign=middle;whiteSpace=wrap;rounded=0;" vertex="1" parent="1">
          <mxGeometry x="653" y="210" width="60" height="30" as="geometry" />
        </mxCell>
        <mxCell id="0Lf7RoLiXzNrAuDKem5A-32" value="" style="rounded=0;whiteSpace=wrap;html=1;" vertex="1" parent="1">
          <mxGeometry x="140" y="120" width="180" height="110" as="geometry" />
        </mxCell>
        <mxCell id="0Lf7RoLiXzNrAuDKem5A-33" value="YarnNama" style="text;html=1;strokeColor=none;fillColor=none;align=center;verticalAlign=middle;whiteSpace=wrap;rounded=0;" vertex="1" parent="1">
          <mxGeometry x="150" y="90" width="60" height="30" as="geometry" />
        </mxCell>
        <mxCell id="0Lf7RoLiXzNrAuDKem5A-34" value="" style="endArrow=none;html=1;rounded=0;exitX=0;exitY=0.25;exitDx=0;exitDy=0;entryX=1;entryY=0.25;entryDx=0;entryDy=0;" edge="1" parent="1" source="0Lf7RoLiXzNrAuDKem5A-32" target="0Lf7RoLiXzNrAuDKem5A-32">
          <mxGeometry width="50" height="50" relative="1" as="geometry">
            <mxPoint x="410" y="200" as="sourcePoint" />
            <mxPoint x="320" y="150" as="targetPoint" />
            <Array as="points">
              <mxPoint x="240" y="150" />
            </Array>
          </mxGeometry>
        </mxCell>
        <mxCell id="0Lf7RoLiXzNrAuDKem5A-35" value="" style="endArrow=none;html=1;rounded=0;exitX=0.25;exitY=1;exitDx=0;exitDy=0;entryX=0.25;entryY=0;entryDx=0;entryDy=0;" edge="1" parent="1" source="0Lf7RoLiXzNrAuDKem5A-32" target="0Lf7RoLiXzNrAuDKem5A-32">
          <mxGeometry width="50" height="50" relative="1" as="geometry">
            <mxPoint x="410" y="200" as="sourcePoint" />
            <mxPoint x="460" y="150" as="targetPoint" />
          </mxGeometry>
        </mxCell>
        <mxCell id="0Lf7RoLiXzNrAuDKem5A-36" value="Drops&lt;br&gt;YarnArt&lt;br&gt;Opal&lt;br&gt;Nako" style="text;html=1;strokeColor=none;fillColor=none;align=center;verticalAlign=middle;whiteSpace=wrap;rounded=0;" vertex="1" parent="1">
          <mxGeometry x="190" y="180" width="60" height="20" as="geometry" />
        </mxCell>
        <mxCell id="0Lf7RoLiXzNrAuDKem5A-37" value="FK_PK" style="text;html=1;strokeColor=none;fillColor=none;align=center;verticalAlign=middle;whiteSpace=wrap;rounded=0;" vertex="1" parent="1">
          <mxGeometry x="140" y="120" width="50" height="30" as="geometry" />
        </mxCell>
        <mxCell id="0Lf7RoLiXzNrAuDKem5A-38" value="" style="rounded=0;whiteSpace=wrap;html=1;" vertex="1" parent="1">
          <mxGeometry x="245" y="400" width="180" height="80" as="geometry" />
        </mxCell>
        <mxCell id="0Lf7RoLiXzNrAuDKem5A-39" value="" style="endArrow=none;html=1;rounded=0;" edge="1" parent="1">
          <mxGeometry width="50" height="50" relative="1" as="geometry">
            <mxPoint x="245" y="430" as="sourcePoint" />
            <mxPoint x="425" y="430" as="targetPoint" />
          </mxGeometry>
        </mxCell>
        <mxCell id="0Lf7RoLiXzNrAuDKem5A-40" value="" style="endArrow=none;html=1;rounded=0;entryX=0.25;entryY=0;entryDx=0;entryDy=0;exitX=0.25;exitY=1;exitDx=0;exitDy=0;" edge="1" parent="1" source="0Lf7RoLiXzNrAuDKem5A-38" target="0Lf7RoLiXzNrAuDKem5A-38">
          <mxGeometry width="50" height="50" relative="1" as="geometry">
            <mxPoint x="515" y="510" as="sourcePoint" />
            <mxPoint x="565" y="460" as="targetPoint" />
          </mxGeometry>
        </mxCell>
        <mxCell id="0Lf7RoLiXzNrAuDKem5A-41" value="Characteristic" style="text;html=1;strokeColor=none;fillColor=none;align=center;verticalAlign=middle;whiteSpace=wrap;rounded=0;" vertex="1" parent="1">
          <mxGeometry x="255" y="370" width="60" height="30" as="geometry" />
        </mxCell>
        <mxCell id="0Lf7RoLiXzNrAuDKem5A-42" value="FK_PK" style="text;html=1;strokeColor=none;fillColor=none;align=center;verticalAlign=middle;whiteSpace=wrap;rounded=0;" vertex="1" parent="1">
          <mxGeometry x="240" y="400" width="60" height="30" as="geometry" />
        </mxCell>
        <mxCell id="0Lf7RoLiXzNrAuDKem5A-44" value="&lt;div style=&quot;text-align: left;&quot;&gt;&lt;span style=&quot;background-color: initial;&quot;&gt;compond&lt;/span&gt;&lt;/div&gt;&lt;div style=&quot;text-align: left;&quot;&gt;&lt;span style=&quot;background-color: initial;&quot;&gt;long&lt;/span&gt;&lt;/div&gt;&lt;div style=&quot;text-align: left;&quot;&gt;&lt;span style=&quot;background-color: initial;&quot;&gt;season&lt;/span&gt;&lt;/div&gt;" style="text;html=1;strokeColor=none;fillColor=none;align=center;verticalAlign=middle;whiteSpace=wrap;rounded=0;" vertex="1" parent="1">
          <mxGeometry x="295" y="440" width="60" height="30" as="geometry" />
        </mxCell>
        <mxCell id="0Lf7RoLiXzNrAuDKem5A-45" value="" style="rounded=0;whiteSpace=wrap;html=1;" vertex="1" parent="1">
          <mxGeometry x="-110" y="120" width="140" height="80" as="geometry" />
        </mxCell>
        <mxCell id="0Lf7RoLiXzNrAuDKem5A-47" value="" style="rounded=0;whiteSpace=wrap;html=1;" vertex="1" parent="1">
          <mxGeometry x="423" y="125" width="170" height="85" as="geometry" />
        </mxCell>
        <mxCell id="0Lf7RoLiXzNrAuDKem5A-48" value="" style="rounded=0;whiteSpace=wrap;html=1;" vertex="1" parent="1">
          <mxGeometry x="-110" y="500" width="150" height="80" as="geometry" />
        </mxCell>
        <mxCell id="0Lf7RoLiXzNrAuDKem5A-49" value="" style="rounded=0;whiteSpace=wrap;html=1;" vertex="1" parent="1">
          <mxGeometry x="510" y="400" width="131" height="85" as="geometry" />
        </mxCell>
        <mxCell id="0Lf7RoLiXzNrAuDKem5A-50" value="Order" style="text;html=1;strokeColor=none;fillColor=none;align=center;verticalAlign=middle;whiteSpace=wrap;rounded=0;" vertex="1" parent="1">
          <mxGeometry x="423" y="90" width="60" height="30" as="geometry" />
        </mxCell>
        <mxCell id="0Lf7RoLiXzNrAuDKem5A-51" value="" style="endArrow=none;html=1;rounded=0;exitX=0;exitY=0.25;exitDx=0;exitDy=0;entryX=1;entryY=0.25;entryDx=0;entryDy=0;" edge="1" parent="1" source="0Lf7RoLiXzNrAuDKem5A-47" target="0Lf7RoLiXzNrAuDKem5A-47">
          <mxGeometry width="50" height="50" relative="1" as="geometry">
            <mxPoint x="483" y="180" as="sourcePoint" />
            <mxPoint x="533" y="130" as="targetPoint" />
          </mxGeometry>
        </mxCell>
        <mxCell id="0Lf7RoLiXzNrAuDKem5A-52" value="" style="endArrow=none;html=1;rounded=0;entryX=0.25;entryY=0;entryDx=0;entryDy=0;exitX=0.25;exitY=1;exitDx=0;exitDy=0;" edge="1" parent="1" source="0Lf7RoLiXzNrAuDKem5A-47" target="0Lf7RoLiXzNrAuDKem5A-47">
          <mxGeometry width="50" height="50" relative="1" as="geometry">
            <mxPoint x="483" y="180" as="sourcePoint" />
            <mxPoint x="533" y="130" as="targetPoint" />
          </mxGeometry>
        </mxCell>
        <mxCell id="0Lf7RoLiXzNrAuDKem5A-53" value="yarnName&lt;br&gt;&lt;div style=&quot;text-align: left;&quot;&gt;&lt;span style=&quot;background-color: initial;&quot;&gt;quantity&lt;/span&gt;&lt;/div&gt;" style="text;html=1;strokeColor=none;fillColor=none;align=center;verticalAlign=middle;whiteSpace=wrap;rounded=0;" vertex="1" parent="1">
          <mxGeometry x="473" y="155" width="60" height="30" as="geometry" />
        </mxCell>
        <mxCell id="0Lf7RoLiXzNrAuDKem5A-54" value="FK" style="text;html=1;strokeColor=none;fillColor=none;align=center;verticalAlign=middle;whiteSpace=wrap;rounded=0;" vertex="1" parent="1">
          <mxGeometry x="413" y="125" width="60" height="30" as="geometry" />
        </mxCell>
        <mxCell id="0Lf7RoLiXzNrAuDKem5A-57" value="Delivery" style="text;html=1;strokeColor=none;fillColor=none;align=center;verticalAlign=middle;whiteSpace=wrap;rounded=0;" vertex="1" parent="1">
          <mxGeometry x="-100" y="470" width="60" height="30" as="geometry" />
        </mxCell>
        <mxCell id="0Lf7RoLiXzNrAuDKem5A-58" value="" style="endArrow=none;html=1;rounded=0;entryX=0.25;entryY=0;entryDx=0;entryDy=0;exitX=0.25;exitY=1;exitDx=0;exitDy=0;" edge="1" parent="1" source="0Lf7RoLiXzNrAuDKem5A-48" target="0Lf7RoLiXzNrAuDKem5A-48">
          <mxGeometry width="50" height="50" relative="1" as="geometry">
            <mxPoint x="-50" y="630" as="sourcePoint" />
            <mxPoint y="580" as="targetPoint" />
          </mxGeometry>
        </mxCell>
        <mxCell id="0Lf7RoLiXzNrAuDKem5A-59" value="" style="endArrow=none;html=1;rounded=0;exitX=0;exitY=0.25;exitDx=0;exitDy=0;exitPerimeter=0;entryX=1;entryY=0.25;entryDx=0;entryDy=0;" edge="1" parent="1" source="0Lf7RoLiXzNrAuDKem5A-48" target="0Lf7RoLiXzNrAuDKem5A-48">
          <mxGeometry width="50" height="50" relative="1" as="geometry">
            <mxPoint x="-50" y="630" as="sourcePoint" />
            <mxPoint y="580" as="targetPoint" />
          </mxGeometry>
        </mxCell>
        <mxCell id="0Lf7RoLiXzNrAuDKem5A-60" value="&lt;div style=&quot;text-align: left;&quot;&gt;&lt;span style=&quot;background-color: initial;&quot;&gt;city&lt;/span&gt;&lt;/div&gt;&lt;div style=&quot;text-align: left;&quot;&gt;&lt;span style=&quot;background-color: initial;&quot;&gt;departament&lt;/span&gt;&lt;/div&gt;" style="text;html=1;strokeColor=none;fillColor=none;align=center;verticalAlign=middle;whiteSpace=wrap;rounded=0;" vertex="1" parent="1">
          <mxGeometry x="-60" y="525" width="60" height="30" as="geometry" />
        </mxCell>
        <mxCell id="0Lf7RoLiXzNrAuDKem5A-61" value="&lt;div style=&quot;text-align: left;&quot;&gt;&lt;span style=&quot;background-color: initial;&quot;&gt;firstName&lt;/span&gt;&lt;/div&gt;&lt;div style=&quot;text-align: left;&quot;&gt;&lt;span style=&quot;background-color: initial;&quot;&gt;lastName&lt;/span&gt;&lt;/div&gt;&lt;div style=&quot;text-align: left;&quot;&gt;&lt;span style=&quot;background-color: initial;&quot;&gt;phone&lt;/span&gt;&lt;/div&gt;&lt;div style=&quot;text-align: left;&quot;&gt;&lt;span style=&quot;background-color: initial;&quot;&gt;address&lt;/span&gt;&lt;/div&gt;&lt;div style=&quot;text-align: left;&quot;&gt;&lt;span style=&quot;background-color: initial;&quot;&gt;post&lt;/span&gt;&lt;/div&gt;&lt;div style=&quot;text-align: left;&quot;&gt;&lt;span style=&quot;background-color: initial;&quot;&gt;e-mail&lt;/span&gt;&lt;/div&gt;&lt;div style=&quot;text-align: justify;&quot;&gt;&lt;span style=&quot;background-color: initial;&quot;&gt;order&lt;/span&gt;&lt;/div&gt;" style="text;html=1;strokeColor=none;fillColor=none;align=center;verticalAlign=middle;whiteSpace=wrap;rounded=0;" vertex="1" parent="1">
          <mxGeometry x="702" y="280" width="60" height="30" as="geometry" />
        </mxCell>
        <mxCell id="0Lf7RoLiXzNrAuDKem5A-62" value="Stoc" style="text;html=1;strokeColor=none;fillColor=none;align=center;verticalAlign=middle;whiteSpace=wrap;rounded=0;" vertex="1" parent="1">
          <mxGeometry x="-110" y="90" width="60" height="30" as="geometry" />
        </mxCell>
        <mxCell id="0Lf7RoLiXzNrAuDKem5A-63" value="" style="endArrow=none;html=1;rounded=0;exitX=0;exitY=0.25;exitDx=0;exitDy=0;entryX=1;entryY=0.25;entryDx=0;entryDy=0;" edge="1" parent="1" source="0Lf7RoLiXzNrAuDKem5A-45" target="0Lf7RoLiXzNrAuDKem5A-45">
          <mxGeometry width="50" height="50" relative="1" as="geometry">
            <mxPoint x="130" y="220" as="sourcePoint" />
            <mxPoint x="180" y="170" as="targetPoint" />
          </mxGeometry>
        </mxCell>
        <mxCell id="0Lf7RoLiXzNrAuDKem5A-64" value="" style="endArrow=none;html=1;rounded=0;entryX=0.25;entryY=0;entryDx=0;entryDy=0;exitX=0.25;exitY=1;exitDx=0;exitDy=0;" edge="1" parent="1" source="0Lf7RoLiXzNrAuDKem5A-45" target="0Lf7RoLiXzNrAuDKem5A-45">
          <mxGeometry width="50" height="50" relative="1" as="geometry">
            <mxPoint x="130" y="220" as="sourcePoint" />
            <mxPoint x="180" y="170" as="targetPoint" />
          </mxGeometry>
        </mxCell>
        <mxCell id="0Lf7RoLiXzNrAuDKem5A-65" value="" style="endArrow=none;html=1;rounded=0;entryX=0.25;entryY=0;entryDx=0;entryDy=0;exitX=0.25;exitY=1;exitDx=0;exitDy=0;" edge="1" parent="1" source="0Lf7RoLiXzNrAuDKem5A-49" target="0Lf7RoLiXzNrAuDKem5A-49">
          <mxGeometry width="50" height="50" relative="1" as="geometry">
            <mxPoint x="431" y="495" as="sourcePoint" />
            <mxPoint x="481" y="445" as="targetPoint" />
          </mxGeometry>
        </mxCell>
        <mxCell id="0Lf7RoLiXzNrAuDKem5A-66" value="" style="endArrow=none;html=1;rounded=0;entryX=1;entryY=0.25;entryDx=0;entryDy=0;exitX=0;exitY=0.25;exitDx=0;exitDy=0;" edge="1" parent="1" source="0Lf7RoLiXzNrAuDKem5A-49" target="0Lf7RoLiXzNrAuDKem5A-49">
          <mxGeometry width="50" height="50" relative="1" as="geometry">
            <mxPoint x="431" y="495" as="sourcePoint" />
            <mxPoint x="481" y="445" as="targetPoint" />
          </mxGeometry>
        </mxCell>
        <mxCell id="0Lf7RoLiXzNrAuDKem5A-67" value="&lt;div style=&quot;text-align: left;&quot;&gt;&lt;span style=&quot;background-color: initial;&quot;&gt;quatntity&lt;/span&gt;&lt;/div&gt;yarnName" style="text;html=1;strokeColor=none;fillColor=none;align=center;verticalAlign=middle;whiteSpace=wrap;rounded=0;" vertex="1" parent="1">
          <mxGeometry x="-105" y="135" width="130" height="50" as="geometry" />
        </mxCell>
        <mxCell id="0Lf7RoLiXzNrAuDKem5A-68" value="Manufacturer" style="text;html=1;strokeColor=none;fillColor=none;align=center;verticalAlign=middle;whiteSpace=wrap;rounded=0;" vertex="1" parent="1">
          <mxGeometry x="516" y="370" width="60" height="30" as="geometry" />
        </mxCell>
        <mxCell id="0Lf7RoLiXzNrAuDKem5A-72" value="&lt;div style=&quot;text-align: left;&quot;&gt;&lt;span style=&quot;background-color: initial;&quot;&gt;Turliye&lt;/span&gt;&lt;/div&gt;Germany&lt;br&gt;&lt;div style=&quot;text-align: left;&quot;&gt;&lt;span style=&quot;background-color: initial;&quot;&gt;Italy&lt;/span&gt;&lt;/div&gt;" style="text;html=1;strokeColor=none;fillColor=none;align=center;verticalAlign=middle;whiteSpace=wrap;rounded=0;" vertex="1" parent="1">
          <mxGeometry x="555" y="430" width="55" height="45" as="geometry" />
        </mxCell>
        <mxCell id="0Lf7RoLiXzNrAuDKem5A-77" value="" style="rounded=0;whiteSpace=wrap;html=1;" vertex="1" parent="1">
          <mxGeometry x="-120" y="290" width="150" height="80" as="geometry" />
        </mxCell>
        <mxCell id="0Lf7RoLiXzNrAuDKem5A-78" value="Manager" style="text;html=1;strokeColor=none;fillColor=none;align=center;verticalAlign=middle;whiteSpace=wrap;rounded=0;" vertex="1" parent="1">
          <mxGeometry x="-110" y="260" width="60" height="30" as="geometry" />
        </mxCell>
        <mxCell id="0Lf7RoLiXzNrAuDKem5A-79" value="" style="endArrow=none;html=1;rounded=0;entryX=0.25;entryY=0;entryDx=0;entryDy=0;exitX=0.25;exitY=1;exitDx=0;exitDy=0;" edge="1" parent="1" source="0Lf7RoLiXzNrAuDKem5A-77" target="0Lf7RoLiXzNrAuDKem5A-77">
          <mxGeometry width="50" height="50" relative="1" as="geometry">
            <mxPoint x="-60" y="420" as="sourcePoint" />
            <mxPoint x="-10" y="370" as="targetPoint" />
          </mxGeometry>
        </mxCell>
        <mxCell id="0Lf7RoLiXzNrAuDKem5A-80" value="" style="endArrow=none;html=1;rounded=0;exitX=0;exitY=0.25;exitDx=0;exitDy=0;exitPerimeter=0;entryX=1;entryY=0.25;entryDx=0;entryDy=0;" edge="1" parent="1" source="0Lf7RoLiXzNrAuDKem5A-77" target="0Lf7RoLiXzNrAuDKem5A-77">
          <mxGeometry width="50" height="50" relative="1" as="geometry">
            <mxPoint x="-60" y="420" as="sourcePoint" />
            <mxPoint x="-10" y="370" as="targetPoint" />
          </mxGeometry>
        </mxCell>
        <mxCell id="0Lf7RoLiXzNrAuDKem5A-81" value="&lt;div style=&quot;text-align: left;&quot;&gt;nameManager&lt;/div&gt;&lt;div style=&quot;text-align: left;&quot;&gt;order&lt;/div&gt;&lt;div style=&quot;text-align: left;&quot;&gt;delivery&lt;/div&gt;" style="text;html=1;strokeColor=none;fillColor=none;align=center;verticalAlign=middle;whiteSpace=wrap;rounded=0;" vertex="1" parent="1">
          <mxGeometry x="-70" y="315" width="70" height="55" as="geometry" />
        </mxCell>
        <mxCell id="0Lf7RoLiXzNrAuDKem5A-82" value="" style="endArrow=ERoneToMany;html=1;rounded=0;edgeStyle=orthogonalEdgeStyle;exitX=1;exitY=0.5;exitDx=0;exitDy=0;entryX=0;entryY=0.75;entryDx=0;entryDy=0;startArrow=ERmandOne;startFill=0;endFill=0;" edge="1" parent="1" source="0Lf7RoLiXzNrAuDKem5A-77" target="0Lf7RoLiXzNrAuDKem5A-32">
          <mxGeometry width="50" height="50" relative="1" as="geometry">
            <mxPoint x="310" y="300" as="sourcePoint" />
            <mxPoint x="110" y="180" as="targetPoint" />
          </mxGeometry>
        </mxCell>
        <mxCell id="0Lf7RoLiXzNrAuDKem5A-83" value="" style="endArrow=ERmandOne;html=1;rounded=0;exitX=1;exitY=1;exitDx=0;exitDy=0;entryX=0.733;entryY=0.007;entryDx=0;entryDy=0;endFill=0;startArrow=ERoneToMany;startFill=0;entryPerimeter=0;" edge="1" parent="1" source="0Lf7RoLiXzNrAuDKem5A-81" target="0Lf7RoLiXzNrAuDKem5A-48">
          <mxGeometry width="50" height="50" relative="1" as="geometry">
            <mxPoint x="310" y="300" as="sourcePoint" />
            <mxPoint x="360" y="250" as="targetPoint" />
          </mxGeometry>
        </mxCell>
        <mxCell id="0Lf7RoLiXzNrAuDKem5A-84" value="" style="endArrow=ERmandOne;html=1;rounded=0;entryX=0.78;entryY=0.998;entryDx=0;entryDy=0;exitX=0.8;exitY=-0.004;exitDx=0;exitDy=0;exitPerimeter=0;entryPerimeter=0;startArrow=ERoneToMany;startFill=0;endFill=0;" edge="1" parent="1" source="0Lf7RoLiXzNrAuDKem5A-77" target="0Lf7RoLiXzNrAuDKem5A-45">
          <mxGeometry width="50" height="50" relative="1" as="geometry">
            <mxPoint x="-4" y="291" as="sourcePoint" />
            <mxPoint x="360" y="250" as="targetPoint" />
          </mxGeometry>
        </mxCell>
        <mxCell id="0Lf7RoLiXzNrAuDKem5A-85" value="" style="endArrow=ERmandOne;html=1;rounded=0;edgeStyle=orthogonalEdgeStyle;exitX=0.333;exitY=1;exitDx=0;exitDy=0;exitPerimeter=0;startArrow=ERoneToMany;startFill=0;endFill=0;" edge="1" parent="1" source="0Lf7RoLiXzNrAuDKem5A-32">
          <mxGeometry width="50" height="50" relative="1" as="geometry">
            <mxPoint x="310" y="300" as="sourcePoint" />
            <mxPoint x="240" y="450" as="targetPoint" />
            <Array as="points">
              <mxPoint x="200" y="450" />
            </Array>
          </mxGeometry>
        </mxCell>
        <mxCell id="0Lf7RoLiXzNrAuDKem5A-86" value="" style="endArrow=ERmandOne;html=1;rounded=0;exitX=1;exitY=0.75;exitDx=0;exitDy=0;entryX=0;entryY=0.71;entryDx=0;entryDy=0;entryPerimeter=0;startArrow=ERoneToMany;startFill=0;endFill=0;" edge="1" parent="1" source="0Lf7RoLiXzNrAuDKem5A-38" target="0Lf7RoLiXzNrAuDKem5A-49">
          <mxGeometry width="50" height="50" relative="1" as="geometry">
            <mxPoint x="310" y="300" as="sourcePoint" />
            <mxPoint x="360" y="250" as="targetPoint" />
          </mxGeometry>
        </mxCell>
        <mxCell id="0Lf7RoLiXzNrAuDKem5A-87" value="" style="endArrow=ERoneToMany;html=1;rounded=0;exitX=0.75;exitY=1;exitDx=0;exitDy=0;entryX=0.688;entryY=-0.01;entryDx=0;entryDy=0;entryPerimeter=0;endFill=0;startArrow=ERmandOne;startFill=0;" edge="1" parent="1" source="0Lf7RoLiXzNrAuDKem5A-1" target="0Lf7RoLiXzNrAuDKem5A-22">
          <mxGeometry width="50" height="50" relative="1" as="geometry">
            <mxPoint x="310" y="300" as="sourcePoint" />
            <mxPoint x="360" y="250" as="targetPoint" />
          </mxGeometry>
        </mxCell>
        <mxCell id="0Lf7RoLiXzNrAuDKem5A-88" value="" style="endArrow=ERmandOne;html=1;rounded=0;exitX=1;exitY=0.5;exitDx=0;exitDy=0;startArrow=ERoneToMany;startFill=0;endFill=0;entryX=0.003;entryY=0.584;entryDx=0;entryDy=0;entryPerimeter=0;" edge="1" parent="1" source="0Lf7RoLiXzNrAuDKem5A-32" target="0Lf7RoLiXzNrAuDKem5A-47">
          <mxGeometry width="50" height="50" relative="1" as="geometry">
            <mxPoint x="310" y="300" as="sourcePoint" />
            <mxPoint x="420" y="175" as="targetPoint" />
          </mxGeometry>
        </mxCell>
        <mxCell id="0Lf7RoLiXzNrAuDKem5A-89" value="" style="endArrow=ERmandOne;html=1;rounded=0;edgeStyle=orthogonalEdgeStyle;exitX=1.006;exitY=0.638;exitDx=0;exitDy=0;exitPerimeter=0;entryX=0;entryY=0.5;entryDx=0;entryDy=0;startArrow=ERoneToMany;startFill=0;endFill=0;" edge="1" parent="1" source="0Lf7RoLiXzNrAuDKem5A-47" target="0Lf7RoLiXzNrAuDKem5A-22">
          <mxGeometry width="50" height="50" relative="1" as="geometry">
            <mxPoint x="310" y="300" as="sourcePoint" />
            <mxPoint x="360" y="250" as="targetPoint" />
          </mxGeometry>
        </mxCell>
        <mxCell id="0Lf7RoLiXzNrAuDKem5A-90" value="FK" style="text;html=1;strokeColor=none;fillColor=none;align=center;verticalAlign=middle;whiteSpace=wrap;rounded=0;" vertex="1" parent="1">
          <mxGeometry x="495" y="400" width="60" height="30" as="geometry" />
        </mxCell>
        <mxCell id="0Lf7RoLiXzNrAuDKem5A-92" value="PK" style="text;html=1;strokeColor=none;fillColor=none;align=center;verticalAlign=middle;whiteSpace=wrap;rounded=0;" vertex="1" parent="1">
          <mxGeometry x="-130" y="285" width="60" height="30" as="geometry" />
        </mxCell>
        <mxCell id="0Lf7RoLiXzNrAuDKem5A-95" value="&lt;font style=&quot;font-size: 32px;&quot;&gt;online store&lt;/font&gt;" style="text;html=1;strokeColor=none;fillColor=none;align=center;verticalAlign=middle;whiteSpace=wrap;rounded=0;" vertex="1" parent="1">
          <mxGeometry x="150" y="20" width="310" height="40" as="geometry" />
        </mxCell>
      </root>
    </mxGraphModel>
  </diagram>
</mxfile>
